<?xml version="1.0" standalone="no"?>
<!DOCTYPE svg PUBLIC "-//W3C//DTD SVG 20010904//EN"
 "http://www.w3.org/TR/2001/REC-SVG-20010904/DTD/svg10.dtd">
<svg version="1.0" xmlns="http://www.w3.org/2000/svg"
 width="384.000000pt" height="71.000000pt" viewBox="0 0 384.000000 71.000000"
 preserveAspectRatio="xMidYMid meet">

<g transform="translate(0.000000,71.000000) scale(0.100000,-0.100000)"
fill="#000000" stroke="none">
<path d="M860 355 l0 -225 30 0 30 0 0 65 c0 58 22 135 39 135 3 0 22 -43 41
-96 35 -98 43 -108 78 -102 18 3 16 12 -29 128 -27 69 -49 131 -49 138 0 7 11
34 24 60 13 26 31 64 39 85 l16 37 -27 0 c-26 0 -32 -8 -72 -100 -25 -55 -48
-100 -52 -100 -5 0 -8 45 -8 100 l0 100 -30 0 -30 0 0 -225z"/>
<path d="M1207 558 c-3 -13 -24 -106 -47 -208 -23 -102 -43 -193 -46 -202 -4
-14 1 -18 24 -18 28 0 30 3 39 48 l8 47 50 0 50 0 8 -47 c8 -44 11 -48 38 -48
25 0 29 3 24 22 -3 13 -23 104 -45 203 -22 99 -42 190 -45 203 -4 15 -13 22
-29 22 -16 0 -26 -7 -29 -22z m49 -190 c8 -40 14 -76 14 -80 0 -5 -16 -8 -35
-8 -39 0 -41 5 -26 73 6 23 13 55 16 71 8 40 15 28 31 -56z"/>
<path d="M1400 355 l0 -225 95 0 95 0 0 30 0 30 -65 0 -65 0 0 195 0 195 -30
0 -30 0 0 -225z"/>
<path d="M1640 355 l0 -225 95 0 95 0 0 30 0 30 -65 0 -65 0 0 70 0 70 55 0
c52 0 55 1 55 24 0 23 -4 25 -52 28 l-53 3 -3 73 -3 72 66 0 c63 0 65 1 65 25
0 25 0 25 -95 25 l-95 0 0 -225z"/>
<path d="M1880 355 l0 -225 30 0 30 0 0 225 0 225 -30 0 -30 0 0 -225z"/>
<path d="M2010 355 l0 -227 75 4 c66 3 78 7 102 31 l28 27 0 165 0 165 -28 27
c-24 24 -36 28 -102 31 l-75 4 0 -227z m137 154 c11 -9 13 -44 11 -158 -3
-145 -3 -145 -29 -160 -14 -8 -33 -11 -42 -8 -15 6 -17 27 -17 178 l0 172 32
-7 c17 -3 37 -11 45 -17z"/>
<path d="M2319 551 l-29 -29 0 -170 0 -170 31 -26 c55 -46 146 -27 168 35 14
41 14 286 0 327 -14 40 -49 62 -99 62 -33 0 -48 -6 -71 -29z m99 -37 c21 -14
22 -22 22 -159 0 -137 -1 -145 -22 -159 -29 -20 -34 -20 -58 4 -18 18 -20 33
-20 155 0 122 2 137 20 155 24 24 29 24 58 4z"/>
<path d="M2589 551 c-25 -26 -29 -37 -29 -86 0 -75 11 -92 78 -122 67 -29 72
-35 72 -88 0 -45 -7 -58 -34 -68 -25 -10 -66 18 -66 43 0 16 -7 20 -30 20 -24
0 -30 -4 -30 -21 0 -30 29 -76 57 -88 31 -14 89 -14 115 0 42 22 63 133 35
189 -6 14 -35 36 -63 50 -70 34 -84 48 -84 81 0 27 29 69 48 69 18 0 52 -33
52 -51 0 -14 7 -19 30 -19 35 0 40 22 15 70 -19 37 -43 50 -95 50 -33 0 -48
-6 -71 -29z"/>
<path d="M2867 569 c-36 -21 -47 -71 -47 -214 0 -187 18 -225 107 -225 56 1
103 46 103 99 0 16 -6 21 -29 21 -23 0 -30 -5 -34 -29 -7 -36 -33 -46 -63 -26
-23 15 -24 19 -24 158 0 78 4 147 8 153 23 34 82 15 82 -28 0 -13 8 -18 30
-18 24 0 30 4 30 20 0 29 -27 78 -49 90 -25 13 -91 12 -114 -1z"/>
<path d="M3119 551 l-29 -29 0 -167 0 -167 29 -29 c51 -50 137 -36 170 28 7
13 11 80 11 168 0 193 -16 225 -110 225 -33 0 -48 -6 -71 -29z m103 -38 c16
-14 18 -33 18 -159 0 -118 -3 -145 -16 -159 -15 -15 -48 -13 -66 4 -6 5 -11
201 -9 294 1 10 11 22 24 27 30 12 28 12 49 -7z"/>
<path d="M3370 355 l0 -225 25 0 c24 0 24 2 27 87 2 69 6 88 18 90 79 10 92
15 110 46 14 22 20 50 20 89 0 104 -34 138 -140 138 l-60 0 0 -225z m138 148
c6 -9 12 -36 12 -60 0 -53 -28 -86 -68 -81 -26 3 -27 5 -30 72 -4 91 0 100 41
92 17 -3 38 -14 45 -23z"/>
<path d="M3630 355 l0 -225 95 0 95 0 0 30 0 30 -65 0 -65 0 0 70 0 70 55 0
c52 0 55 1 55 25 0 24 -3 25 -55 25 l-55 0 0 75 0 75 65 0 c63 0 65 1 65 25 0
25 0 25 -95 25 l-95 0 0 -225z"/>
<path d="M321 443 c-14 -28 -61 -146 -61 -155 0 -17 29 -7 35 12 5 15 15 20
45 20 30 0 40 -5 45 -20 3 -11 15 -20 25 -20 17 0 16 6 -11 77 -41 104 -58
123 -78 86z m36 -63 c11 -28 10 -30 -13 -30 -26 0 -27 3 -18 38 8 30 17 28 31
-8z"/>
<path d="M450 365 c0 -78 2 -85 20 -85 18 0 20 7 20 85 0 78 -2 85 -20 85 -18
0 -20 -7 -20 -85z"/>
</g>
</svg>
